<svg width="30" height="31" viewBox="0 0 30 31" fill="none" xmlns="http://www.w3.org/2000/svg">
<rect x="0.5" y="1.47461" width="29" height="29" rx="14.5" stroke="#003B10"/>
<path d="M15.5039 11.8857C13.0195 11.8857 11.0156 13.8896 11.0156 16.374C11.0156 18.8584 13.0195 20.8623 15.5039 20.8623C17.9883 20.8623 19.9922 18.8584 19.9922 16.374C19.9922 13.8896 17.9883 11.8857 15.5039 11.8857ZM15.5039 19.292C13.8984 19.292 12.5859 17.9834 12.5859 16.374C12.5859 14.7646 13.8945 13.4561 15.5039 13.4561C17.1133 13.4561 18.4219 14.7646 18.4219 16.374C18.4219 17.9834 17.1094 19.292 15.5039 19.292ZM21.2227 11.7021C21.2227 12.2842 20.7539 12.749 20.1758 12.749C19.5938 12.749 19.1289 12.2803 19.1289 11.7021C19.1289 11.124 19.5977 10.6553 20.1758 10.6553C20.7539 10.6553 21.2227 11.124 21.2227 11.7021ZM24.1953 12.7646C24.1289 11.3623 23.8086 10.1201 22.7812 9.09668C21.7578 8.07324 20.5156 7.75293 19.1133 7.68262C17.668 7.60059 13.3359 7.60059 11.8906 7.68262C10.4922 7.74902 9.25 8.06934 8.22266 9.09277C7.19531 10.1162 6.87891 11.3584 6.80859 12.7607C6.72656 14.2061 6.72656 18.5381 6.80859 19.9834C6.875 21.3857 7.19531 22.6279 8.22266 23.6514C9.25 24.6748 10.4883 24.9951 11.8906 25.0654C13.3359 25.1475 17.668 25.1475 19.1133 25.0654C20.5156 24.999 21.7578 24.6787 22.7812 23.6514C23.8047 22.6279 24.125 21.3857 24.1953 19.9834C24.2773 18.5381 24.2773 14.21 24.1953 12.7646ZM22.3281 21.5342C22.0234 22.2998 21.4336 22.8896 20.6641 23.1982C19.5117 23.6553 16.7773 23.5498 15.5039 23.5498C14.2305 23.5498 11.4922 23.6514 10.3438 23.1982C9.57812 22.8936 8.98828 22.3037 8.67969 21.5342C8.22266 20.3818 8.32813 17.6475 8.32813 16.374C8.32813 15.1006 8.22656 12.3623 8.67969 11.2139C8.98438 10.4482 9.57422 9.8584 10.3438 9.5498C11.4961 9.09277 14.2305 9.19824 15.5039 9.19824C16.7773 9.19824 19.5156 9.09668 20.6641 9.5498C21.4297 9.85449 22.0195 10.4443 22.3281 11.2139C22.7852 12.3662 22.6797 15.1006 22.6797 16.374C22.6797 17.6475 22.7852 20.3857 22.3281 21.5342Z" fill="#003B10"/>
</svg>
