<svg width="30" height="31" viewBox="0 0 30 31" fill="none" xmlns="http://www.w3.org/2000/svg">
<rect x="0.5" y="1.47461" width="29" height="29" rx="14.5" stroke="#003B10"/>
<g clip-path="url(#clip0_26_383)">
<path d="M10.6672 23.9742H7.03906V12.2906H10.6672V23.9742ZM8.85117 10.6969C7.69102 10.6969 6.75 9.73594 6.75 8.57578C6.75 8.01852 6.97137 7.48407 7.36542 7.09003C7.75947 6.69598 8.29391 6.47461 8.85117 6.47461C9.40844 6.47461 9.94288 6.69598 10.3369 7.09003C10.731 7.48407 10.9523 8.01852 10.9523 8.57578C10.9523 9.73594 10.0109 10.6969 8.85117 10.6969ZM24.2461 23.9742H20.6258V18.2867C20.6258 16.9312 20.5984 15.193 18.7395 15.193C16.8531 15.193 16.5641 16.6656 16.5641 18.1891V23.9742H12.9398V12.2906H16.4195V13.8844H16.4703C16.9547 12.9664 18.1379 11.9977 19.9031 11.9977C23.575 11.9977 24.25 14.4156 24.25 17.5562V23.9742H24.2461Z" fill="#003B10"/>
</g>
<defs>
<clipPath id="clip0_26_383">
<rect width="20" height="20" fill="white" transform="translate(5.5 6.47461)"/>
</clipPath>
</defs>
</svg>
