<svg width="30" height="31" viewBox="0 0 30 31" fill="none" xmlns="http://www.w3.org/2000/svg">
<rect x="0.5" y="1.47461" width="29" height="29" rx="14.5" stroke="#003B10"/>
<path d="M22.5045 7.88086C20.6339 6.00586 18.1429 4.97461 15.4955 4.97461C10.0312 4.97461 5.58482 9.42104 5.58482 14.8853C5.58482 16.6309 6.04018 18.3362 6.90625 19.8407L5.5 24.9746L10.7545 23.5951C12.2009 24.3853 13.8304 24.8005 15.4911 24.8005H15.4955C20.9554 24.8005 25.5 20.3541 25.5 14.8898C25.5 12.2425 24.375 9.75586 22.5045 7.88086ZM15.4955 23.1309C14.0134 23.1309 12.5625 22.7335 11.2991 21.9835L11 21.805L7.88393 22.6219L8.71429 19.5818L8.51786 19.2693C7.69196 17.9568 7.25893 16.4434 7.25893 14.8853C7.25893 10.3451 10.9554 6.64872 15.5 6.64872C17.7009 6.64872 19.7679 7.50586 21.3214 9.0639C22.875 10.6219 23.8304 12.6889 23.8259 14.8898C23.8259 19.4344 20.0357 23.1309 15.4955 23.1309ZM20.0134 16.9612C19.7679 16.8362 18.5491 16.238 18.3214 16.1576C18.0938 16.0728 17.9286 16.0326 17.7634 16.2826C17.5982 16.5326 17.125 17.0862 16.9777 17.2559C16.8348 17.421 16.6875 17.4434 16.442 17.3184C14.9866 16.5907 14.0312 16.0193 13.0714 14.3719C12.817 13.9344 13.3259 13.9657 13.7991 13.0193C13.8795 12.8541 13.8393 12.7112 13.7768 12.5862C13.7143 12.4612 13.2188 11.2425 13.0134 10.7469C12.8125 10.2648 12.6071 10.3318 12.4554 10.3228C12.3125 10.3139 12.1473 10.3139 11.9821 10.3139C11.817 10.3139 11.5491 10.3764 11.3214 10.6219C11.0938 10.8719 10.4554 11.4701 10.4554 12.6889C10.4554 13.9076 11.3438 15.0862 11.4643 15.2514C11.5893 15.4166 13.2098 17.9166 15.6964 18.9925C17.2679 19.671 17.8839 19.7291 18.6696 19.613C19.1473 19.5416 20.1339 19.0148 20.3393 18.4344C20.5446 17.8541 20.5446 17.3585 20.4821 17.2559C20.4241 17.1443 20.2589 17.0818 20.0134 16.9612Z" fill="#003B10"/>
</svg>
